<?xml version="1.0" encoding="UTF-8"?>
<svg xmlns="http://www.w3.org/2000/svg" xmlns:xlink="http://www.w3.org/1999/xlink" width="198px" height="192px" viewBox="0 0 197 192" version="1.1">
<g id="surface1">
<path style=" stroke:none;fill-rule:evenodd;fill:rgb(100%,100%,100%);fill-opacity:1;" d="M 49.121094 16 L 11.003906 16 L 11.003906 32 L 36.601562 32 L 58.632812 133.425781 L 58.726562 133.425781 L 58.726562 136 L 162.132812 136 L 162.132812 134.015625 L 179.578125 56.726562 L 182.265625 48 L 55.984375 48 L 51.449219 27.113281 Z M 162.03125 64 L 59.460938 64 L 71.621094 120 L 149.390625 120 Z M 162.03125 64 "/>
<path style=" stroke:none;fill-rule:nonzero;fill:rgb(100%,100%,100%);fill-opacity:1;" d="M 82.59375 176 C 86.8125 176 90.859375 174.3125 93.839844 171.3125 C 96.824219 168.3125 98.5 164.246094 98.5 160 C 98.5 155.753906 96.824219 151.6875 93.839844 148.6875 C 90.859375 145.6875 86.8125 144 82.59375 144 C 78.375 144 74.324219 145.6875 71.34375 148.6875 C 68.359375 151.6875 66.683594 155.753906 66.683594 160 C 66.683594 164.246094 68.359375 168.3125 71.34375 171.3125 C 74.324219 174.3125 78.375 176 82.59375 176 Z M 154.179688 160 C 154.179688 164.246094 152.503906 168.3125 149.519531 171.3125 C 146.539062 174.3125 142.492188 176 138.273438 176 C 134.054688 176 130.003906 174.3125 127.023438 171.3125 C 124.039062 168.3125 122.363281 164.246094 122.363281 160 C 122.363281 155.753906 124.039062 151.6875 127.023438 148.6875 C 130.003906 145.6875 134.054688 144 138.273438 144 C 142.492188 144 146.539062 145.6875 149.519531 148.6875 C 152.503906 151.6875 154.179688 155.753906 154.179688 160 Z M 154.179688 160 "/>
</g>
</svg>
