<svg width="35" height="34" viewBox="0 0 35 34" fill="none" xmlns="http://www.w3.org/2000/svg">
<path fill-rule="evenodd" clip-rule="evenodd" d="M8.70529 2.83334H1.91663V5.66668H6.47546L10.3996 23.6272H10.4166V24.0833H28.8333V23.732L31.94 10.0456L32.4189 8.50001H9.92788L9.12038 4.80109L8.70529 2.83334ZM28.8149 11.3333H10.547L12.713 21.25H26.5638L28.8149 11.3333Z" fill="white"/>
<path d="M14.6667 31.1667C15.4182 31.1667 16.1388 30.8682 16.6702 30.3368C17.2015 29.8054 17.5 29.0848 17.5 28.3333C17.5 27.5819 17.2015 26.8612 16.6702 26.3299C16.1388 25.7985 15.4182 25.5 14.6667 25.5C13.9153 25.5 13.1946 25.7985 12.6632 26.3299C12.1319 26.8612 11.8334 27.5819 11.8334 28.3333C11.8334 29.0848 12.1319 29.8054 12.6632 30.3368C13.1946 30.8682 13.9153 31.1667 14.6667 31.1667ZM27.4167 28.3333C27.4167 29.0848 27.1182 29.8054 26.5868 30.3368C26.0555 30.8682 25.3348 31.1667 24.5834 31.1667C23.8319 31.1667 23.1113 30.8682 22.5799 30.3368C22.0486 29.8054 21.75 29.0848 21.75 28.3333C21.75 27.5819 22.0486 26.8612 22.5799 26.3299C23.1113 25.7985 23.8319 25.5 24.5834 25.5C25.3348 25.5 26.0555 25.7985 26.5868 26.3299C27.1182 26.8612 27.4167 27.5819 27.4167 28.3333Z" fill="white"/>
</svg>
